<svg height="512" viewBox="0 0 64 64" width="512" xmlns="http://www.w3.org/2000/svg"><g id="dc_motor-electronics-2" data-name="dc motor-electronics"><path d="m47 16v32h-25a2.006 2.006 0 0 1 -2-2v-28a2.006 2.006 0 0 1 2-2z" fill="#57565c"/><path d="m3 34h7v3h-7z" fill="#ffcd00"/><path d="m3 27h7v3h-7z" fill="#ffcd00"/><path d="m3 30h7v4h-7z" fill="#ffda44"/><path d="m10 30h6v4h-6z" fill="#e0e0e2"/><path d="m16 26h4v12h-4z" fill="#3e3d42"/><path d="m24 24h23v16h-23z" fill="#e0e0e2"/><path d="m55 18v28a2.006 2.006 0 0 1 -2 2h-6v-32h6a2.006 2.006 0 0 1 2 2z" fill="#ff9811"/><path d="m55 26h3v12h-3z" fill="#acabb1"/><path d="m58 30h3v4h-3z" fill="#e0e0e2"/><path d="m61 29h-2v-3a1 1 0 0 0 -1-1h-2v-4h4v-2h-4v-1a3.009 3.009 0 0 0 -3-3h-31a3.009 3.009 0 0 0 -3 3v7h-3a1 1 0 0 0 -1 1v3h-4v-2a1 1 0 0 0 -1-1h-7a1 1 0 0 0 -1 1v10a1 1 0 0 0 1 1h7a1 1 0 0 0 1-1v-2h4v3a1 1 0 0 0 1 1h3v7a3.009 3.009 0 0 0 3 3h31a3.009 3.009 0 0 0 3-3v-1h4v-2h-4v-4h2a1 1 0 0 0 1-1v-3h2a1 1 0 0 0 1-1v-4a1 1 0 0 0 -1-1zm-52 7h-5v-1h5zm0-3h-5v-2h5zm0-4h-5v-1h5zm6 4h-4v-2h4zm4 4h-2v-10h2zm27 2h-21v-14h21zm0-16h-22a1 1 0 0 0 -1 1v16a1 1 0 0 0 1 1h22v6h-24a1 1 0 0 1 -1-1v-28a1 1 0 0 1 1-1h24zm8 23a1 1 0 0 1 -1 1h-5v-30h5a1 1 0 0 1 1 1zm3-9h-1v-10h1zm3-4h-1v-2h1z"/></g></svg>